<svg id="Icons" height="512" viewBox="0 0 74 74" width="512" xmlns="http://www.w3.org/2000/svg"><path d="m70.983 35.807v.026a6.177 6.177 0 0 1 -.525 1.984c-2.608 5.717-11.945 9.633-21.97 11.435-11.015 1.958-44.708 2.848-45.476-12.506v-1.046c.748-16.448 22.354-23.053 32.7-17.335 10.369 5.717 22.617 8.145 22.617 8.145s10.025 1.932 12.309 7.023a4.8 4.8 0 0 1 .345 2.274z" fill="#ef5261"/><path d="m70.64 33.535c-2.284-5.091-12.309-7.023-12.309-7.023s-12.248-2.428-22.617-8.145c-7.771-4.294-21.89-1.637-28.757 6.918 7.391-6.395 19.274-8.062 26.168-4.253 10.368 5.717 22.616 8.145 22.616 8.145s10.025 1.932 12.309 7.023a4.817 4.817 0 0 1 .344 2.272v.028a6.2 6.2 0 0 1 -.526 1.984 9.634 9.634 0 0 1 -.979 1.633 12.17 12.17 0 0 0 3.569-4.3 6.177 6.177 0 0 0 .525-1.984v-.026a4.8 4.8 0 0 0 -.343-2.272z" fill="#da364c"/><path d="m70.983 35.833-.161 6.418a10.228 10.228 0 0 1 -3.275 7.623c-4.285 3.577-11.561 6.11-19.059 7.441-11.258 2.01-46.244 2.872-45.476-13.55v-7.019c.768 15.354 34.461 14.464 45.476 12.506 10.025-1.8 19.362-5.718 21.97-11.435a6.177 6.177 0 0 0 .525-1.984z" fill="#eeefee"/><path d="m34.156 58.862c-10.068 0-22-1.441-27.943-6.655a10.2 10.2 0 0 1 -3.7-8.465v-6.995a.5.5 0 0 1 .487-.5h.013a.5.5 0 0 1 .5.475 9.442 9.442 0 0 0 3.856 7.078c8.889 7.077 31.11 6.721 41.031 4.958 11.266-2.023 19.342-6.192 21.6-11.149a5.7 5.7 0 0 0 .482-1.821.484.484 0 0 1 .527-.455.5.5 0 0 1 .471.512l-.162 6.419a10.7 10.7 0 0 1 -3.454 7.994c-3.986 3.328-11.017 6.08-19.291 7.549a90.051 90.051 0 0 1 -14.417 1.055zm-30.643-18.173v3.076a9.254 9.254 0 0 0 3.359 7.69c9.232 8.1 33.67 6.771 41.528 5.368 8.108-1.44 14.97-4.113 18.827-7.332a9.7 9.7 0 0 0 3.094-7.25l.082-3.258c-2.927 4.828-10.951 8.807-21.826 10.761-7.717 1.372-31.964 2.7-41.831-5.16a11.474 11.474 0 0 1 -3.233-3.895z" fill="#323c6b"/><path d="m34.2 50.786c-9.782 0-21.36-1.35-27.454-6.2a10.4 10.4 0 0 1 -4.232-7.813v-1.073c.307-6.8 4.124-12.581 10.744-16.287 7.423-4.156 16.758-4.767 22.7-1.484 10.176 5.613 22.349 8.071 22.471 8.093.417.08 10.3 2.041 12.667 7.309a5.341 5.341 0 0 1 .387 2.495v.007a6.744 6.744 0 0 1 -.569 2.189c-2.4 5.258-10.748 9.639-22.337 11.722a90.378 90.378 0 0 1 -14.377 1.042zm-7.326-33.928a27.483 27.483 0 0 0 -13.128 3.428c-6.308 3.53-9.941 9.014-10.234 15.439v1.022a9.432 9.432 0 0 0 3.857 7.053c8.889 7.077 31.11 6.721 41.031 4.958 11.266-2.023 19.342-6.192 21.6-11.149a5.7 5.7 0 0 0 .482-1.821l.5.019-.5-.039a4.339 4.339 0 0 0 -.3-2.036c-2.15-4.786-11.848-6.71-11.946-6.732-.126-.025-12.446-2.509-22.762-8.2a17.949 17.949 0 0 0 -8.6-1.942z" fill="#323c6b"/><ellipse cx="17.869" cy="32.474" fill="#eeefee" rx="5.25" ry="5.501"/><g fill="#323c6b"><path d="m17.869 38.475a6.006 6.006 0 0 1 0-12 6.006 6.006 0 0 1 0 12zm0-11a5.008 5.008 0 0 0 0 10 5.008 5.008 0 0 0 0-10z"/><path d="m30.636 42.759a.486.486 0 0 1 -.145-.022.5.5 0 0 1 -.334-.623l4.676-15.457a.5.5 0 1 1 .957.289l-4.676 15.454a.5.5 0 0 1 -.478.359z"/><path d="m40.253 42.183a.519.519 0 0 1 -.145-.021.5.5 0 0 1 -.334-.624l3.54-11.7a.5.5 0 1 1 .957.29l-3.54 11.7a.5.5 0 0 1 -.478.355z"/><path d="m50.271 42.183a.517.517 0 0 1 -.144-.021.5.5 0 0 1 -.334-.623l2.271-7.511a.5.5 0 1 1 .957.289l-2.271 7.511a.5.5 0 0 1 -.479.355z"/><path d="m37.119 16.217a.492.492 0 0 1 -.24-.061 20.925 20.925 0 0 0 -10.02-2.311c-.589 0-1.18.024-1.772.06a.5.5 0 0 1 -.529-.468.5.5 0 0 1 .468-.53c.612-.037 1.224-.062 1.833-.062a21.923 21.923 0 0 1 10.5 2.434.5.5 0 0 1 -.24.938z"/><path d="m45.057 19.885a.506.506 0 0 1 -.182-.034c-1.372-.536-2.611-1.057-3.788-1.593a.5.5 0 1 1 .414-.91c1.16.528 2.383 1.042 3.737 1.571a.5.5 0 0 1 -.181.966z"/><path d="m54.577 59.548a.5.5 0 0 1 -.127-.984c3.924-1.029 9.481-2.9 13.663-5.985a.5.5 0 1 1 .594.8c-4.311 3.177-9.994 5.1-14 6.148a.51.51 0 0 1 -.13.021z"/><path d="m46.409 61.155a.5.5 0 0 1 -.062-1c.911-.116 1.788-.242 2.578-.383.478-.085 1.005-.186 1.554-.3a.5.5 0 0 1 .2.981c-.557.112-1.091.214-1.576.3-.8.144-1.7.271-2.626.39a.473.473 0 0 1 -.068.012z"/></g><path d="m22.745 46.267a.669.669 0 0 1 -.1-.007c-.874-.123-1.732-.262-2.567-.418a.7.7 0 1 1 .256-1.376c.815.152 1.654.288 2.506.408a.7.7 0 0 1 -.1 1.393z" fill="#fff"/><path d="m16.827 45.129a.694.694 0 0 1 -.179-.024c-5.6-1.482-9.295-4.123-10.131-7.245a.7.7 0 1 1 1.352-.36c.692 2.586 4.108 4.925 9.136 6.255a.7.7 0 0 1 -.178 1.377z" fill="#fff"/></svg>