<?xml version="1.0" encoding="utf-8"?>
<!-- Generator: Adobe Illustrator 24.2.1, SVG Export Plug-In . SVG Version: 6.00 Build 0)  -->
<svg version="1.1" id="Livello_1" xmlns="http://www.w3.org/2000/svg" xmlns:xlink="http://www.w3.org/1999/xlink" x="0px" y="0px"
	 viewBox="0 0 1024 216" style="enable-background:new 0 0 1024 216;" xml:space="preserve">
<style type="text/css">
	.st0{opacity:0.2;fill:#FFFFFF;enable-background:new    ;}
	.st1{opacity:0.25;fill:#FFFFFF;enable-background:new    ;}
	.st2{opacity:0.3;fill:#FFFFFF;enable-background:new    ;}
	.st3{fill:#FFFFFF;}
</style>
<path class="st0" d="M0,214.4c19.4,0.5,38.7,1.6,57.7,0.3c206.6-15,248.5-126.6,455-143.8c184.8-15.5,285.7,60.9,464.3,41.3
	c16.9-1.8,32.5-4.4,47.1-7.6L1024-0.6H0V214.4z"/>
<path class="st1" d="M0,195.4c30.2,1.6,59.6,1.6,86.8-0.4C293.4,179.9,284.1,72.4,490.7,55.2c184.9-15.5,278.5,58.2,457.1,38.4
	c28.3-3.2,53.5-8.2,76.2-14.6V-0.7H0V195.4z"/>
<path class="st2" d="M0,168.8c22.2,0.3,43.8-0.2,64.2-1.7C270.8,152.1,262,54.6,468.6,37.4C653.4,21.9,695.4,88.5,874,68.7
	c54.8-6,104.9-18.3,150-33.7V-0.7H0V168.8z"/>
<path class="st3" d="M0,161.1c4-0.2,8-0.4,11.9-0.7C218.4,145.3,239.8,36,446.4,18.8C631.3,3.3,672.7,59.9,851.3,40.1
	c64-7.2,121.9-20.8,172.7-37.9v-3H0V161.1z"/>
</svg>
